<?xml version="1.0" encoding="utf-8"?>
<!-- Generator: Adobe Illustrator 24.1.2, SVG Export Plug-In . SVG Version: 6.00 Build 0)  -->
<svg version="1.1" xmlns="http://www.w3.org/2000/svg" xmlns:xlink="http://www.w3.org/1999/xlink" x="0px" y="0px"
	 viewBox="0 0 30 30" style="enable-background:new 0 0 30 30;" xml:space="preserve">
<style type="text/css">
	.st0{display:none;}
	.st1{display:inline;}
	.st2{fill:#14A028;}
	.st3{fill:none;stroke:#14A028;stroke-width:1.1345;stroke-linecap:round;stroke-linejoin:round;stroke-miterlimit:10;}
	
		.st4{fill-rule:evenodd;clip-rule:evenodd;fill:none;stroke:#14A028;stroke-width:0.9454;stroke-linecap:round;stroke-linejoin:round;stroke-miterlimit:10;}
	.st5{fill-rule:evenodd;clip-rule:evenodd;fill:none;stroke:#14A028;stroke-width:0.9454;stroke-miterlimit:10;}
	.st6{fill:none;stroke:#14A028;stroke-width:0.9454;stroke-miterlimit:10;}
	.st7{fill-rule:evenodd;clip-rule:evenodd;fill:#14A028;}
</style>
<g id="Show_Axes_Reference" class="st0">
	<g class="st1">
		<g>
			<path class="st2" d="M13.9,9.3C13.8,9.3,13.8,9.3,13.9,9.3l0-1.8l-1.7-2.9c0,0,0,0,0-0.1c0,0,0-0.1,0-0.1c0,0,0,0,0.1,0h0.7
				c0,0,0.1,0,0.1,0c0,0,0.1,0,0.1,0.1l1.1,2.1h0l1.1-2.1c0,0,0-0.1,0.1-0.1c0,0,0.1,0,0.1,0h0.7c0,0,0.1,0,0.1,0c0,0,0,0,0,0.1
				c0,0,0,0,0,0.1l-1.7,2.9v1.7c0,0,0,0.1,0,0.1c0,0-0.1,0-0.1,0H14C13.9,9.4,13.9,9.4,13.9,9.3z"/>
		</g>
		<g>
			<path class="st2" d="M2.6,25.3C2.6,25.3,2.6,25.2,2.6,25.3l0-0.4c0,0,0-0.1,0-0.1l2.5-3.5H2.7c0,0-0.1,0-0.1,0c0,0,0-0.1,0-0.1
				v-0.5c0,0,0-0.1,0-0.1c0,0,0.1,0,0.1,0H6c0,0,0.1,0,0.1,0c0,0,0,0.1,0,0.1v0.4c0,0,0,0.1,0,0.1l-2.5,3.6h2.4c0,0,0.1,0,0.1,0
				c0,0,0,0.1,0,0.1v0.5c0,0,0,0.1,0,0.1c0,0-0.1,0-0.1,0L2.6,25.3C2.7,25.3,2.6,25.3,2.6,25.3z"/>
		</g>
		<g>
			<path class="st2" d="M23.4,25.3C23.3,25.3,23.3,25.2,23.4,25.3c0-0.1,0-0.1,0-0.1l1.4-2.3c0,0,0,0,0,0c0,0,0,0,0,0l-1.4-2.3
				c0,0,0,0,0-0.1c0,0,0-0.1,0-0.1c0,0,0,0,0.1,0h0.7c0,0,0.1,0,0.1,0c0,0,0.1,0,0.1,0.1l1,1.7c0,0,0,0,0,0c0,0,0,0,0,0l1-1.7
				c0,0,0-0.1,0.1-0.1c0,0,0.1,0,0.1,0h0.7c0,0,0.1,0,0.1,0c0,0,0,0,0,0.1c0,0,0,0,0,0.1L26,22.9c0,0,0,0,0,0c0,0,0,0,0,0l1.4,2.3
				c0,0,0,0,0,0.1c0,0,0,0.1,0,0.1c0,0,0,0-0.1,0h-0.7c0,0-0.1,0-0.1,0c0,0-0.1,0-0.1-0.1l-1-1.7c0,0,0,0,0,0c0,0,0,0,0,0l-1,1.7
				c0,0,0,0.1-0.1,0.1c0,0-0.1,0-0.1,0L23.4,25.3C23.4,25.3,23.4,25.3,23.4,25.3z"/>
		</g>
		<g>
			<line class="st3" x1="14.4" y1="19.2" x2="8.2" y2="22.8"/>
			<line class="st3" x1="14.4" y1="19.3" x2="14.4" y2="12"/>
			<line class="st3" x1="20.7" y1="22.8" x2="14.4" y2="19.2"/>
		</g>
	</g>
</g>
<g id="Show_Projector__x2F__Projection_Interfere" class="st0">
	<g class="st1">
		<polygon class="st4" points="22,24.5 17.1,21.9 17.1,18.7 22,21.5 		"/>
		<polygon class="st4" points="22,24.5 26.8,21.5 26.8,18.6 22,21.5 		"/>
		<polygon class="st4" points="26.8,18.6 22,21.5 17.1,18.7 22.1,16 		"/>
		<polygon class="st4" points="11.2,17.8 7.5,15.8 7.5,13.4 11.2,15.6 		"/>
		<polygon class="st4" points="11.2,17.8 14.8,15.6 14.8,13.4 11.2,15.5 		"/>
		<polygon class="st4" points="14.8,13.4 11.2,15.5 7.5,13.4 11.2,11.4 		"/>
		<line class="st4" x1="3.2" y1="21.5" x2="16.3" y2="19.9"/>
		<line class="st4" x1="20.2" y1="16.3" x2="14.6" y2="5.5"/>
	</g>
</g>
<g id="Show_Projector_Distance_Range_Reference" class="st0">
	<g class="st1">
		<rect x="5.1" y="14.9" class="st5" width="19.9" height="7"/>
		<g>
			<line class="st6" x1="11.7" y1="15.2" x2="11.7" y2="18.4"/>
			<line class="st6" x1="18.3" y1="15.2" x2="18.3" y2="18.4"/>
			<line class="st6" x1="8.4" y1="15.2" x2="8.4" y2="17.4"/>
			<line class="st6" x1="15" y1="15.2" x2="15" y2="17.4"/>
			<line class="st6" x1="21.6" y1="15.2" x2="21.6" y2="17.4"/>
		</g>
		<line class="st5" x1="24.1" y1="10.2" x2="6.9" y2="10.2"/>
		<path class="st7" d="M5.2,10.4l3.3,1.9c0.1,0.1,0.3,0,0.3-0.2V8.3c0-0.1-0.2-0.2-0.3-0.2L5.2,10C5,10.1,5,10.3,5.2,10.4z"/>
		<path class="st7" d="M24.8,10.4l-3.3,1.9c-0.1,0.1-0.3,0-0.3-0.2V8.3c0-0.1,0.2-0.2,0.3-0.2l3.3,1.9C25,10.1,25,10.3,24.8,10.4z"
			/>
	</g>
</g>
<g id="Show_Projector_Light_Bound" class="st0">
	<g class="st1">
		<g>
			<polygon class="st4" points="21.7,23.7 18.4,21.9 18.4,19.8 21.7,21.7 			"/>
			<polygon class="st4" points="21.7,23.7 24.9,21.7 24.9,19.7 21.7,21.6 			"/>
			<polygon class="st4" points="24.9,19.7 21.7,21.6 18.4,19.8 21.7,17.9 			"/>
		</g>
		<polyline class="st4" points="18.4,20.6 5.1,22.3 5.1,11.9 		"/>
		<polyline class="st4" points="20.5,18.3 15.2,6.3 5.1,11.9 19.7,19 		"/>
	</g>
</g>
<g id="Delete" class="st0">
	<g class="st1">
		<g>
			<path class="st2" d="M25.2,4.7h-5.8V3c0-1.1-0.9-1.9-1.9-1.9h-4.8c-1.1,0-1.9,0.9-1.9,1.9v1.8H4.8c-0.4,0-0.8,0.4-0.8,0.8v0.6
				c0,0.4,0.4,0.8,0.8,0.8h20.3c0.4,0,0.8-0.4,0.8-0.8V5.5C25.9,5.1,25.6,4.7,25.2,4.7z M12.2,3c0-0.2,0.2-0.4,0.4-0.4h4.8
				c0.2,0,0.4,0.2,0.4,0.4v1.8h-5.6V3z"/>
			<path class="st2" d="M5.1,9.4l1.6,17.3c0,1.2,1,2.2,2.2,2.2h12.2c1.2,0,2.2-1,2.2-2.2l1.7-17.3H5.1z M11,25.4
				C11,25.4,11,25.4,11,25.4c-0.4,0-0.7-0.3-0.7-0.6L9.4,13.7c0-0.4,0.2-0.7,0.6-0.7c0.4,0,0.7,0.2,0.7,0.6l0.9,11.2
				C11.6,25.1,11.4,25.4,11,25.4z M15.1,25.4C15.1,25.4,15.1,25.4,15.1,25.4c-0.4,0-0.7-0.3-0.7-0.6l-0.2-11.2
				c0-0.4,0.3-0.7,0.6-0.7c0.4,0,0.7,0.3,0.7,0.6l0.2,11.2C15.7,25.1,15.4,25.4,15.1,25.4z M19.6,24.8c0,0.3-0.3,0.6-0.7,0.6
				c0,0,0,0-0.1,0c-0.4,0-0.6-0.3-0.6-0.7l0.9-11.2c0-0.4,0.3-0.6,0.7-0.6c0.4,0,0.6,0.3,0.6,0.7L19.6,24.8z"/>
		</g>
	</g>
</g>
<g id="Copy" class="st0">
	<g class="st1">
		<g>
			<g>
				<path class="st2" d="M25.6,12.1h-3.7c-1.4,0-2.3-1-2.3-2.3V6.1c0-0.2-0.1-0.3-0.3-0.3H9.2c-0.5,0-0.9,0.4-0.9,0.9v20.5
					c0,0.5,0.4,0.9,0.9,0.9H25c0.5,0,0.9-0.4,0.9-0.9V12.4C25.9,12.3,25.8,12.1,25.6,12.1z M21.9,24.1h-9.5c-0.4,0-0.6-0.3-0.6-0.6
					c0-0.4,0.3-0.6,0.6-0.6h9.5c0.4,0,0.6,0.3,0.6,0.6C22.5,23.8,22.2,24.1,21.9,24.1z M22,20h-9.8c-0.4,0-0.6-0.3-0.6-0.6
					c0-0.4,0.3-0.6,0.6-0.6H22c0.4,0,0.6,0.3,0.6,0.6C22.6,19.7,22.3,20,22,20z M22,16h-9.8c-0.4,0-0.6-0.3-0.6-0.6s0.3-0.6,0.6-0.6
					H22c0.4,0,0.6,0.3,0.6,0.6S22.3,16,22,16z"/>
				<path class="st2" d="M21,6.3l4.4,4.4c0.1,0.1,0,0.2-0.1,0.2h-3.8c-0.4,0-0.8-0.3-0.8-0.8V6.4C20.8,6.3,20.9,6.2,21,6.3"/>
			</g>
			<g>
				<g>
					<path class="st2" d="M4.9,25c-0.4,0-0.8-0.4-0.8-0.8V4.6c0-1.5,1.2-2.6,2.6-2.6h10.8c0.4,0,0.8,0.4,0.8,0.8S18,3.5,17.6,3.5
						H6.7C6.2,3.5,5.7,4,5.7,4.6v19.7C5.7,24.6,5.3,25,4.9,25z"/>
				</g>
			</g>
		</g>
	</g>
</g>
<g id="Edit">
	<g>
		<g>
			<rect x="6.2" y="11.6" transform="matrix(0.7071 -0.7071 0.7071 0.7071 -5.9883 15.1)" class="st2" width="18" height="6.4"/>
			<path class="st2" d="M10.2,24.4L3.6,27c-0.4,0.2-0.8-0.2-0.6-0.6l2.6-6.5L10.2,24.4z"/>
			<path class="st2" d="M26.8,7.8l-2,2l-4.5-4.5l2-2c0.4-0.4,0.9-0.4,1.3,0l3.3,3.3C27.2,6.8,27.2,7.4,26.8,7.8z"/>
		</g>
	</g>
</g>
</svg>
