<?xml version="1.0" encoding="utf-8"?>
<!-- Generator: Adobe Illustrator 24.0.0, SVG Export Plug-In . SVG Version: 6.00 Build 0)  -->
<svg version="1.1" id="圖層_1" xmlns="http://www.w3.org/2000/svg" xmlns:xlink="http://www.w3.org/1999/xlink" x="0px" y="0px"
	 viewBox="0 0 100 100" style="enable-background:new 0 0 100 100;" xml:space="preserve">
<style type="text/css">
	.st0{fill:#F2F2F2;stroke:#5F5F5F;stroke-width:0.4833;stroke-linecap:round;stroke-linejoin:round;stroke-miterlimit:10;}
	.st1{clip-path:url(#SVGID_2_);}
	.st2{clip-path:url(#SVGID_4_);}
</style>
<g>
	<path class="st0" d="M90.2,59.7c0,0,3.2-1.7,3.3-10.3c0,0-0.1-7.2-3.3-9.7"/>
	<path class="st0" d="M81,62.8h5.7c0,0,5.8-1.1,5.6-13.9c0,0,0.2-10.1-5.7-11.8h-5.4"/>
	<path class="st0" d="M61.4,62.9H80c0,0,5.8,0.5,5.9-15.2c0,0-0.5-10.8-6.3-11.1H61.2"/>
	<polygon class="st0" points="84.6,61.6 85.4,60.7 87.1,60.7 86.3,61.6 	"/>
	<polygon class="st0" points="87.2,55.6 87.5,53.5 89.6,53.5 89.2,55.6 	"/>
	<polygon class="st0" points="87.5,46.7 87.4,44.8 89.5,44.8 89.7,46.7 	"/>
	<polygon class="st0" points="85.4,39.4 84.6,38.3 86.7,38.3 87.3,39.5 	"/>
	<path class="st0" d="M60.2,62.6c0,0,4.3,3.5,5.4-12c0,0,0.4-15.2-5.6-14"/>
	<path class="st0" d="M56.6,68.6"/>
	<g>
		<defs>
			<path id="SVGID_1_" d="M60.3,62.4c0,0,2.6-3.3,3-12c0,0,0.4-9.3-3.3-13.7c6.1-1.3,5.6,14,5.6,14c-1.1,15.4-5.4,12-5.4,12"/>
		</defs>
		<use xlink:href="#SVGID_1_"  style="overflow:visible;fill:#F2F2F2;"/>
		<clipPath id="SVGID_2_">
			<use xlink:href="#SVGID_1_"  style="overflow:visible;"/>
		</clipPath>
		<g class="st1">
			<line class="st0" x1="55.9" y1="64.5" x2="69.7" y2="64.5"/>
			<line class="st0" x1="55.9" y1="62" x2="69.7" y2="62"/>
			<line class="st0" x1="55.9" y1="63.2" x2="69.7" y2="63.2"/>
			<line class="st0" x1="55.9" y1="60.7" x2="69.7" y2="60.7"/>
			<line class="st0" x1="55.9" y1="60" x2="69.7" y2="60"/>
			<line class="st0" x1="55.9" y1="56.8" x2="69.7" y2="56.8"/>
			<line class="st0" x1="55.9" y1="58.1" x2="69.7" y2="58.1"/>
			<line class="st0" x1="55.9" y1="55.6" x2="69.7" y2="55.6"/>
			<line class="st0" x1="55.9" y1="63.9" x2="69.7" y2="63.9"/>
			<line class="st0" x1="55.9" y1="61.3" x2="69.7" y2="61.3"/>
			<line class="st0" x1="55.9" y1="62.6" x2="69.7" y2="62.6"/>
			<line class="st0" x1="55.9" y1="59.4" x2="69.7" y2="59.4"/>
			<line class="st0" x1="55.9" y1="58.8" x2="69.7" y2="58.8"/>
			<line class="st0" x1="55.9" y1="56.2" x2="69.7" y2="56.2"/>
			<line class="st0" x1="55.9" y1="57.5" x2="69.7" y2="57.5"/>
			<line class="st0" x1="55.9" y1="54.9" x2="69.7" y2="54.9"/>
			<line class="st0" x1="55.9" y1="54.3" x2="69.7" y2="54.3"/>
			<line class="st0" x1="55.9" y1="51.7" x2="69.7" y2="51.7"/>
			<line class="st0" x1="55.9" y1="53" x2="69.7" y2="53"/>
			<line class="st0" x1="55.9" y1="50.4" x2="69.7" y2="50.4"/>
			<line class="st0" x1="55.9" y1="49.8" x2="69.7" y2="49.8"/>
			<line class="st0" x1="55.9" y1="46.6" x2="69.7" y2="46.6"/>
			<line class="st0" x1="55.9" y1="47.9" x2="69.7" y2="47.9"/>
			<line class="st0" x1="55.9" y1="45.3" x2="69.7" y2="45.3"/>
			<line class="st0" x1="55.9" y1="53.6" x2="69.7" y2="53.6"/>
			<line class="st0" x1="55.9" y1="51.1" x2="69.7" y2="51.1"/>
			<line class="st0" x1="55.9" y1="52.4" x2="69.7" y2="52.4"/>
			<line class="st0" x1="55.9" y1="49.2" x2="69.7" y2="49.2"/>
			<line class="st0" x1="55.9" y1="48.5" x2="69.7" y2="48.5"/>
			<line class="st0" x1="55.9" y1="45.9" x2="69.7" y2="45.9"/>
			<line class="st0" x1="55.9" y1="47.2" x2="69.7" y2="47.2"/>
			<line class="st0" x1="55.9" y1="44" x2="69.7" y2="44"/>
			<line class="st0" x1="55.9" y1="44.7" x2="69.7" y2="44.7"/>
			<line class="st0" x1="55.9" y1="41.5" x2="69.7" y2="41.5"/>
			<line class="st0" x1="55.9" y1="42.7" x2="69.7" y2="42.7"/>
			<line class="st0" x1="55.9" y1="40.2" x2="69.7" y2="40.2"/>
			<line class="st0" x1="55.9" y1="39.5" x2="69.7" y2="39.5"/>
			<line class="st0" x1="55.9" y1="36.3" x2="69.7" y2="36.3"/>
			<line class="st0" x1="55.9" y1="37.6" x2="69.7" y2="37.6"/>
			<line class="st0" x1="55.9" y1="35.1" x2="69.7" y2="35.1"/>
			<line class="st0" x1="55.9" y1="43.4" x2="69.7" y2="43.4"/>
			<line class="st0" x1="55.9" y1="40.8" x2="69.7" y2="40.8"/>
			<line class="st0" x1="55.9" y1="42.1" x2="69.7" y2="42.1"/>
			<line class="st0" x1="55.9" y1="38.9" x2="69.7" y2="38.9"/>
			<line class="st0" x1="55.9" y1="38.3" x2="69.7" y2="38.3"/>
			<line class="st0" x1="55.9" y1="35.7" x2="69.7" y2="35.7"/>
			<line class="st0" x1="55.9" y1="37" x2="69.7" y2="37"/>
			<line class="st0" x1="55.9" y1="34.4" x2="69.7" y2="34.4"/>
		</g>
		<use xlink:href="#SVGID_1_"  style="overflow:visible;fill:none;stroke:#5F5F5F;stroke-width:0.4833;stroke-miterlimit:10;"/>
	</g>
	<path class="st0" d="M41.6,65.7h9.9c0,0,5.7,1.8,6.6-15.7c0,0,0.5-15.2-6.8-15.7h-9.8"/>
	<path class="st0" d="M54.8,63.9h3.3c0,0,4,0.5,5.2-13.5c0,0,0-14.5-5.2-14.5h-3.5"/>
	<path class="st0" d="M46.7,65.7c0,0,5.1-0.4,5.3-17.1c0,0-0.1-12.6-5-14.3"/>
	<g>
		<defs>
			<path id="SVGID_3_" d="M51.3,34.3c7.3,0.5,6.8,15.7,6.8,15.7c-1,17.5-6.6,15.7-6.6,15.7h-4.8c0,0,5.1-0.4,5.3-17.1
				c0,0-0.1-12.6-5-14.3H51.3z"/>
		</defs>
		<use xlink:href="#SVGID_3_"  style="overflow:visible;fill:#F2F2F2;"/>
		<clipPath id="SVGID_4_">
			<use xlink:href="#SVGID_3_"  style="overflow:visible;"/>
		</clipPath>
		<g class="st2">
			<line class="st0" x1="46.5" y1="65.1" x2="60.3" y2="65.1"/>
			<line class="st0" x1="46.5" y1="62.5" x2="60.3" y2="62.5"/>
			<line class="st0" x1="46.5" y1="63.8" x2="60.3" y2="63.8"/>
			<line class="st0" x1="46.5" y1="61.3" x2="60.3" y2="61.3"/>
			<line class="st0" x1="46.5" y1="60.6" x2="60.3" y2="60.6"/>
			<line class="st0" x1="46.5" y1="57.4" x2="60.3" y2="57.4"/>
			<line class="st0" x1="46.5" y1="58.7" x2="60.3" y2="58.7"/>
			<line class="st0" x1="46.5" y1="56.1" x2="60.3" y2="56.1"/>
			<line class="st0" x1="46.5" y1="64.5" x2="60.3" y2="64.5"/>
			<line class="st0" x1="46.5" y1="61.9" x2="60.3" y2="61.9"/>
			<line class="st0" x1="46.5" y1="63.2" x2="60.3" y2="63.2"/>
			<line class="st0" x1="46.5" y1="60" x2="60.3" y2="60"/>
			<line class="st0" x1="46.5" y1="59.3" x2="60.3" y2="59.3"/>
			<line class="st0" x1="46.5" y1="56.8" x2="60.3" y2="56.8"/>
			<line class="st0" x1="46.5" y1="58.1" x2="60.3" y2="58.1"/>
			<line class="st0" x1="46.5" y1="55.5" x2="60.3" y2="55.5"/>
			<line class="st0" x1="46.5" y1="54.9" x2="60.3" y2="54.9"/>
			<line class="st0" x1="46.5" y1="52.3" x2="60.3" y2="52.3"/>
			<line class="st0" x1="46.5" y1="53.6" x2="60.3" y2="53.6"/>
			<line class="st0" x1="46.5" y1="51" x2="60.3" y2="51"/>
			<line class="st0" x1="46.5" y1="50.4" x2="60.3" y2="50.4"/>
			<line class="st0" x1="46.5" y1="47.2" x2="60.3" y2="47.2"/>
			<line class="st0" x1="46.5" y1="48.4" x2="60.3" y2="48.4"/>
			<line class="st0" x1="46.5" y1="45.9" x2="60.3" y2="45.9"/>
			<line class="st0" x1="46.5" y1="54.2" x2="60.3" y2="54.2"/>
			<line class="st0" x1="46.5" y1="51.7" x2="60.3" y2="51.7"/>
			<line class="st0" x1="46.5" y1="52.9" x2="60.3" y2="52.9"/>
			<line class="st0" x1="46.5" y1="49.7" x2="60.3" y2="49.7"/>
			<line class="st0" x1="46.5" y1="49.1" x2="60.3" y2="49.1"/>
			<line class="st0" x1="46.5" y1="46.5" x2="60.3" y2="46.5"/>
			<line class="st0" x1="46.5" y1="47.8" x2="60.3" y2="47.8"/>
			<line class="st0" x1="46.5" y1="44.6" x2="60.3" y2="44.6"/>
			<line class="st0" x1="46.5" y1="45.2" x2="60.3" y2="45.2"/>
			<line class="st0" x1="46.5" y1="42" x2="60.3" y2="42"/>
			<line class="st0" x1="46.5" y1="43.3" x2="60.3" y2="43.3"/>
			<line class="st0" x1="46.5" y1="40.8" x2="60.3" y2="40.8"/>
			<line class="st0" x1="46.5" y1="40.1" x2="60.3" y2="40.1"/>
			<line class="st0" x1="46.5" y1="36.9" x2="60.3" y2="36.9"/>
			<line class="st0" x1="46.5" y1="38.2" x2="60.3" y2="38.2"/>
			<line class="st0" x1="46.5" y1="35.6" x2="60.3" y2="35.6"/>
			<line class="st0" x1="46.5" y1="44" x2="60.3" y2="44"/>
			<line class="st0" x1="46.5" y1="41.4" x2="60.3" y2="41.4"/>
			<line class="st0" x1="46.5" y1="42.7" x2="60.3" y2="42.7"/>
			<line class="st0" x1="46.5" y1="39.5" x2="60.3" y2="39.5"/>
			<line class="st0" x1="46.5" y1="38.8" x2="60.3" y2="38.8"/>
			<line class="st0" x1="46.5" y1="36.3" x2="60.3" y2="36.3"/>
			<line class="st0" x1="46.5" y1="37.6" x2="60.3" y2="37.6"/>
			<line class="st0" x1="46.5" y1="35" x2="60.3" y2="35"/>
		</g>
		
			<use xlink:href="#SVGID_3_"  style="overflow:visible;fill:none;stroke:#5F5F5F;stroke-width:0.4833;stroke-linecap:round;stroke-linejoin:round;stroke-miterlimit:10;"/>
	</g>
	<path class="st0" d="M13.7,72.5h22.2c0,0,3.4,0,5.7-6.8c1.2-3.5,2.1-8.8,2.1-16.8c0,0-0.3-20.1-7.7-21.4H13.7"/>
	<ellipse class="st0" cx="13.7" cy="50" rx="7.2" ry="22.5"/>
	<ellipse class="st0" cx="13.6" cy="50" rx="6.2" ry="21.2"/>
	<path class="st0" d="M15.2,70.5c0,0-4.9-0.7-5.7-19.9c0,0-0.1-17.6,5.6-21.1"/>
	<path class="st0" d="M17.9,65.3c0,0-3.1,4.4-5.5-3c0,0-3.9-12,0.5-26.1c0,0,2.3-5.9,5.1-1.1"/>
	<path class="st0" d="M18.6,62.2c0,0-4.3,4.6-5-11.7c0,0,0.1-16.4,5-12.7"/>
	<path class="st0" d="M61.5,30.5c0,0,2.2-0.4,3,3.4l-8.4-0.2c0,0-1-1.3-3.4-3.4L61.5,30.5z"/>
	<path class="st0" d="M56.1,33.7c0,0-1.1-2.8-3-3.3c-0.5-0.1-1.1-0.1-1.8,0.2L51,34.7l2.2,3.3L56.1,33.7z"/>
	<path class="st0" d="M52.4,33.7h1.1c0,0,0.7-0.1,0.6-1c0,0,0-1-0.9-1h-0.8"/>
	<path class="st0" d="M52.3,31.7c0.2,0,0.6,0.5,0.6,1s-0.4,1-0.6,1c-0.2,0-0.4-0.4-0.4-1C51.9,32.2,52.1,31.7,52.3,31.7z"/>
	<path class="st0" d="M51.6,33.1h0.6c0,0,0.4-0.2,0.1-0.9h-0.7"/>
	<polygon class="st0" points="54.5,33.9 66.2,33.9 67.7,37.8 55.6,37.5 	"/>
	<polygon class="st0" points="54,41.2 66.3,41.2 67.7,37.8 55.6,37.5 	"/>
	<path class="st0" d="M50,35.4h0.9c0,0,0.9-0.2,0.9-3c0,0-0.3-2.3-1-2.3h-1"/>
	<path class="st0" d="M49.9,30.1c0.5,0,1.1,1.2,1.1,2.6s-0.7,2.6-1.1,2.6S49,34.2,49,32.8S49.4,30.1,49.9,30.1z"/>
	<ellipse class="st0" cx="47" cy="32.8" rx="0.8" ry="1.7"/>
	<path class="st0" d="M47.2,34.4h2.1c0,0,0.9,0.2,0.9-1.7c0,0,0-1.9-1.2-1.7h-1.8C47.2,31.1,48.3,32.8,47.2,34.4z"/>
	<polygon class="st0" points="54.1,41.4 55.6,37.5 54.5,33.9 53.1,37.6 	"/>
</g>
</svg>
